<svg width="120" height="120" viewBox="0 0 120 120" fill="none" xmlns="http://www.w3.org/2000/svg">
  <circle cx="60" cy="60" r="60" fill="#E6F7FF"/>
  <path d="M60 30C66.6274 30 72 35.3726 72 42C72 48.6274 66.6274 54 60 54C53.3726 54 48 48.6274 48 42C48 35.3726 53.3726 30 60 30Z" fill="#91D5FF"/>
  <path d="M90 80C90 66.1929 79.8071 56 66 56H54C39.736 56 30 67.1567 28 81.0193C27.3676 85.9258 31.0726 90 36 90H84C88.9274 90 92.6324 85.9258 92 81.0193C90.8612 69.7979 81.9376 60 70 60C67.2878 60 64.7322 60.7368 62.5 62.0426C62.2942 59.4311 60.4706 57.4 57.8 57.4H47.2C44.5294 57.4 42.7058 59.4311 42.5 62.0426C40.2678 60.7368 37.7122 60 35 60C23.0624 60 14.1388 69.7979 13 81.0193C12.3676 85.9258 16.0726 90 21 90H60C65.5228 90 70 85.5228 70 80H90Z" fill="#91D5FF"/>
</svg>